<?xml version="1.0" encoding="utf-8"?>
<!-- Generator: Adobe Illustrator 26.0.1, SVG Export Plug-In . SVG Version: 6.00 Build 0)  -->
<svg version="1.1"
	 id="svg2998" inkscape:version="1.0 (4035a4fb49, 2020-05-01)" xmlns:cc="http://creativecommons.org/ns#" xmlns:dc="http://purl.org/dc/elements/1.1/" xmlns:inkscape="http://www.inkscape.org/namespaces/inkscape" xmlns:rdf="http://www.w3.org/1999/02/22-rdf-syntax-ns#" xmlns:sodipodi="http://sodipodi.sourceforge.net/DTD/sodipodi-0.dtd" xmlns:svg="http://www.w3.org/2000/svg"
	 xmlns="http://www.w3.org/2000/svg" xmlns:xlink="http://www.w3.org/1999/xlink" x="0px" y="0px" viewBox="0 0 188 45.3"
	 style="enable-background:new 0 0 188 45.3;" xml:space="preserve">
<style type="text/css">
	.st0{fill:#ED1D24;}
	.st1{fill:#006CB7;}
</style>
<sodipodi:namedview  bordercolor="#666666" borderopacity="1.0" id="base" inkscape:current-layer="layer1" inkscape:cx="348.7779" inkscape:cy="-100.81956" inkscape:document-rotation="0" inkscape:document-units="mm" inkscape:pageopacity="0.0" inkscape:pageshadow="2" inkscape:window-height="1030" inkscape:window-maximized="0" inkscape:window-width="1375" inkscape:window-x="183" inkscape:window-y="0" inkscape:zoom="1.4142136" pagecolor="#ffffff" showgrid="false">
	</sodipodi:namedview>
<g>
	<g id="g1210" transform="matrix(0.35277777,0,0,-0.35277777,57.456111,5.3267185)">
		<path id="path1212" class="st0" d="M-74.6-34.2c-1.7-5.7-1.2-3.6-3.7-13c-2.2-8.9-4.6-17.8-6.3-23.7c-0.6-1.1-1.2-2.2-2.1-3.4
			c-1-1.4-2.2-2.7-3.6-3.9c-7.6-6.6-18.9-10.5-28.7-9c-0.8,0.1-1.8,0.2-2.9,0.6c-6.2,1.4-10.2,4.5-12.5,8.3
			c-2.5,4.1-3.1,9.4-2.2,15.2c0.1,0.8,0.3,1.8,0.6,3c3.8,15.2,7.6,30.2,11.3,45.3c1.5,7.6-14.6,9.6-18.1-0.3l-10.4-40.8
			c-0.2-1.3-0.6-2.9-0.8-4.5c-1.5-9.7-0.1-19,4.4-26.6c4.7-7.9,12.5-13.8,23.6-16.4c1.2-0.3,2.6-0.6,4.3-0.8
			c14.8-2.2,31.8,3.4,42.9,13.2c2.2,2,4.3,4.1,6.1,6.5c1.8,2.4,3.3,4.9,4.5,7.7v0.1l0.3,0.9c1.8,5.7,4.2,15.1,6.6,24.6
			c2.3,9,3.2,12.1,4.9,18C-54.7-25.4-70.3-21.9-74.6-34.2"/>
	</g>
	<g id="g1214" transform="matrix(0.35277777,0,0,-0.35277777,54.048206,8.7886985)">
		<path id="path1216" class="st1" d="M-92.4-52.2c1.7,5.7,1.3,3.5,3.7,13c2.3,8.8,4.6,17.8,6.3,23.6c0.6,1.1,1.3,2.3,2.2,3.3
			c1,1.4,2.2,2.7,3.6,3.9c7.6,6.7,19,10.5,28.8,9.1c0.8-0.2,1.8-0.3,2.9-0.6c6.2-1.5,10.3-4.5,12.6-8.4c2.4-4.1,3.1-9.3,2.2-15.1
			c-0.2-0.8-0.3-1.8-0.6-3c-4-15.9-8-31.8-11.9-47.7c-1-9.5,15.7-10.4,18.1,0.2l10.8,43.4c0.3,1.4,0.6,2.9,0.9,4.6
			c1.4,9.7,0.1,18.9-4.5,26.5C-22,8.6-29.8,14.5-40.9,17.1c-1.2,0.2-2.6,0.6-4.4,0.8C-60,20.1-77,14.5-88.1,4.8
			c-2.3-2-4.3-4.1-6.1-6.5C-96-4-97.5-6.6-98.6-9.4l-0.4-1c-1.7-5.7-4.2-15.1-6.5-24.6c-2.4-9.1-3.2-12.2-5-18
			C-110.7-63.8-94.3-62.8-92.4-52.2"/>
	</g>
	<g id="g1218" transform="matrix(0.35277777,0,0,-0.35277777,104.95779,10.930518)">
		<path id="path1220" class="st0" d="M172.4-63.3c-1.1,0-2.2-0.3-3.2-0.7c-1-0.5-2-1.1-2.8-2.1l0.5,2.4h-3.6l-3.6-17.1l-0.1-0.5h3.8
			l2.1,10.2c0.3,1.4,0.9,2.6,1.8,3.4c1,0.9,2.2,1.3,3.6,1.3c1,0,1.8-0.3,2.2-0.9c0.4-0.6,0.5-1.3,0.2-2.5L171-81.2h3.8l2.3,11.2
			c0.6,2.5,0.5,4.3-0.3,5.3C176.1-63.8,174.6-63.3,172.4-63.3 M193.1-72.4c-0.5-2-1.2-3.5-2.2-4.6c-0.7-0.7-1.6-1.2-2.5-1.4
			c-0.4-0.1-0.8-0.2-1.3-0.2c-1.4,0-2.5,0.6-3.1,1.6c-0.6,1-0.6,2.6-0.2,4.4c0.4,2,1.1,3.5,2.2,4.6c0.7,0.7,1.6,1.2,2.5,1.4
			c0.4,0.1,0.8,0.2,1.3,0.2c1.5,0,2.6-0.5,3.2-1.5C193.4-69,193.5-70.4,193.1-72.4 M199.8-57.3h-3.6l-1.8-8.5
			c-0.5,0.9-1.1,1.6-1.9,2.1c-0.8,0.4-1.8,0.6-3,0.6c-0.4,0-0.7,0-1.1-0.1c-1.8-0.2-3.4-1-4.9-2.5c-1.8-1.8-3-4.1-3.5-6.9
			c-0.6-2.8-0.4-5,0.6-6.8c1.1-1.7,2.7-2.6,5-2.6c1,0,1.9,0.2,2.8,0.6c0.2,0.1,0.2,0.1,0.3,0.2c1,0.5,2,1.2,3,2.1l-0.5-2.2h3.6
			l4.7,22.6L199.8-57.3z M141.7-57c-1.5,0-2.7-0.4-3.7-1.1c-0.9-0.7-1.5-1.9-1.8-3.4l-0.4-2.2H133l-0.6-2.8h2.6L132-81.2h3.8
			l3.1,14.7h3l0.6,2.8h-3.1l0.3,1.4c0.2,0.8,0.4,1.4,0.7,1.7c0.3,0.3,0.8,0.4,1.5,0.4h0.5l0.8-0.1l0.6,3.2h-0.2
			C142.8-57.1,142.1-57,141.7-57 M159.9-57.3h-4.1l-5-23.9h4l4.9,23.4L159.9-57.3z M208-57.3h-3.8l-0.8-3.8h3.8L208-57.3z M219-74.7
			c-0.2-1.2-0.9-2.2-2-3c-0.6-0.4-1.1-0.7-1.8-0.9c-0.6-0.2-1.3-0.2-1.9-0.2c-0.9,0-1.5,0.2-2,0.6c-0.4,0.5-0.5,1.1-0.3,1.9
			c0.2,0.7,0.5,1.3,1,1.8c0.6,0.4,1.3,0.7,2.2,0.9c0.2,0,0.6,0.1,1.1,0.2l0.3,0.1c1.8,0.2,3,0.6,3.9,0.9L219-74.7z M218.1-63.1
			c-1,0-2-0.1-2.8-0.3c-1-0.2-2-0.6-2.8-1.2c-1.5-1-2.5-2.4-2.8-4.1l-0.1-0.3h3.5v0.2c0.2,0.9,0.6,1.6,1.4,2.1
			c0.2,0.2,0.5,0.2,0.8,0.4c0.6,0.2,1.2,0.3,2,0.3c1.2,0,2.1-0.2,2.6-0.6c0.5-0.4,0.6-1,0.5-1.8c-0.2-1-1.6-1.8-4-2.1H216
			c-0.2-0.1-0.5-0.1-0.7-0.2c-2.6-0.3-4.4-1-5.5-1.8c-1.3-0.9-2.1-2.2-2.5-4c-0.3-1.7-0.1-2.9,0.7-3.8c0.8-1,2.1-1.4,3.8-1.4
			c1.2,0,2.3,0.2,3.4,0.8c1.1,0.5,2.2,1.2,3,2.2c-0.2-1,0-1.6,0.5-2c0.4-0.5,1.2-0.7,2.3-0.7c0.3,0,0.6,0.1,1,0.1
			c0.3,0.1,0.7,0.2,1,0.2l0.6,2.7c-0.2-0.1-0.4-0.1-0.5-0.1H223c-0.4,0-0.6,0.1-0.8,0.3c-0.1,0.2-0.1,0.6,0.1,1.4l1.8,8.7
			c0.3,1.7,0,3-1,3.9C222.1-63.5,220.4-63.1,218.1-63.1 M125-76.8c-1.1-1.4-2.4-2.2-4-2.6c-0.4,0-0.8-0.1-1.2-0.1
			c-1.5,0-2.7,0.4-3.5,1.3c-0.9,0.8-1.3,2-1.3,3.6c0,1.1,0.2,2.3,0.6,3.5c0.4,1.2,0.9,2.2,1.5,3.1c0.6,0.8,1.4,1.5,2.2,1.9
			c0.6,0.2,1.1,0.5,1.8,0.6c0.3,0.1,0.7,0.1,1,0.1c1.7,0,2.9-0.4,3.8-1.2c0.8-0.8,1.2-2,1.2-3.5C127-72.8,126.3-75,125-76.8
			 M122.4-62.7c-0.5,0-1,0-1.4-0.1c-2.5-0.3-4.7-1.4-6.4-3.2c-2.1-2.2-3-5-3-8.4c0-2.5,0.7-4.4,2.1-5.7c1.4-1.4,3.4-2,6.1-2h1.3
			c2.6,0.3,4.8,1.4,6.5,3.3c2.1,2.1,3.1,4.9,3.1,8.3c0,2.4-0.8,4.3-2.2,5.7C126.9-63.4,124.9-62.7,122.4-62.7 M199.5-79.9l-0.2-1.4
			h3.7l3.7,17.5h-3.8L199.5-79.9z M230.5-12.2h-13.1l-12.6-11.6l5,23.7h-10.9l-9.7-45.9H200l1.9,9.2l5,4.2l4.9-13.5h12.3l-8.3,21.1
			L230.5-12.2z M133.8-34.1c-0.3-1.7-1.3-3.2-2.6-4.2c-0.8-0.6-1.6-1-2.5-1.3c-0.8-0.2-1.6-0.4-2.6-0.4c-1.2,0-2.1,0.4-2.7,1.1
			c-0.6,0.7-0.7,1.7-0.5,2.9c0.2,1,0.6,1.8,1.3,2.3c0.7,0.6,1.8,1,3.1,1.4c0.4,0.1,0.9,0.2,1.4,0.3c0.4,0.1,0.7,0.2,1.2,0.2
			c2.1,0.4,3.8,1,4.8,1.4L133.8-34.1z M146-15.8c-0.9,1.5-2.2,2.6-4.2,3.4c-1.9,0.7-4.4,1-7.4,1c-2.1,0-4-0.2-5.7-0.5
			c-2.3-0.5-4.3-1.2-6.1-2.3c-3-1.8-5.2-4.7-6.5-8.5h10.2c0.5,1.3,1.3,2.2,2.4,2.9c1.1,0.6,2.4,1,3.9,1c1.4,0,2.5-0.2,3.1-0.8
			c0.6-0.5,0.9-1.2,0.6-2.2l-0.2-0.8c-0.2-1.2-2.3-2.1-6.3-2.7c-0.4-0.1-0.8-0.2-1.2-0.2c-2.1-0.4-3.9-0.7-5.4-1
			c-3.2-0.7-5.7-2-7.6-3.7c-1.8-1.8-3-4-3.7-6.8c-0.6-3.1-0.2-5.5,1.3-7.3c1.5-1.7,3.9-2.6,7.2-2.6c2.1,0,4.1,0.3,6,1.1
			c0.7,0.2,1.4,0.6,2.1,1c1.3,0.6,2.5,1.5,3.7,2.5c-0.1-0.6-0.1-1.2-0.2-1.8v-1.7h11.3l0.2,1.3c-0.5,0.3-0.8,0.9-0.9,1.8
			c-0.1,0.9,0,2.1,0.3,3.6l2.7,12.9c0.6,3.2,1,5.6,1,7C146.9-18.1,146.5-16.8,146-15.8 M164.1-27.9c0.6,2.8,1.4,4.9,2.6,6.2
			c1.1,1.3,2.7,1.9,4.6,1.9c1.8,0,3-0.6,3.4-1.7c0.5-1,0.2-3.6-0.6-7.6l-3.6-17.1h11.1l4.6,22.1c1,4.5,0.7,7.7-0.6,9.7
			c-1.4,2-4.1,2.9-8,2.9c-2.3,0-4.5-0.4-6.3-1.3c-1.9-0.9-3.6-2.2-5.2-4.1l1,4.6h-10.9l-7.1-33.9h11L164.1-27.9z M39-11.4
			c-2.3,0-4.4-0.4-6.3-1.3c-1.8-0.9-3.6-2.2-5.1-4.1l1,4.6H17.7l-7.1-33.9h11l3.8,18.2c0.6,2.8,1.4,4.9,2.6,6.2
			c1.2,1.3,2.7,1.9,4.7,1.9c1.8,0,2.9-0.6,3.3-1.7c0.5-1,0.2-3.6-0.6-7.6l-3.6-17.1H43L47.7-24c0.9,4.5,0.7,7.7-0.6,9.7
			C45.7-12.4,43-11.4,39-11.4 M-37.2-0.2l-1.9-8.9H-28l1.8,8.9H-37.2z M-58.4-11.4c-2.3,0-4.4-0.4-6.3-1.3c-1.8-0.9-3.6-2.2-5.1-4.1
			l1,4.6h-10.9l-5.7-27.1l-1.4-6.8h11l3.8,18.2c0.6,2.8,1.5,4.9,2.6,6.2c1.2,1.3,2.7,1.9,4.7,1.9c1.8,0,2.9-0.6,3.3-1.7
			c0.4-1,0.2-3.6-0.6-7.6l-3.6-17.1h11.1l4.6,22.1c1,4.5,0.7,7.7-0.6,9.7C-51.8-12.4-54.4-11.4-58.4-11.4 M-46.9-46.1h11l7.1,33.9
			h-11L-46.9-46.1z M-1.8-29.1c-0.6-3-1.8-5.4-3.3-7.1C-6-37.3-7.1-38-8.4-38.4c-0.6-0.2-1.4-0.2-2.1-0.2c-2.1,0-3.5,0.8-4.3,2.5
			c-0.8,1.7-0.9,4-0.2,7.1c0.6,3.1,1.7,5.4,3.2,7.1c0.9,1.1,2.1,1.8,3.4,2.2c0.6,0.2,1.3,0.2,2,0.2c2.1,0,3.6-0.8,4.4-2.5
			C-1.2-23.7-1.1-26.1-1.8-29.1 M-4.6-11c-1.3,0-2.5-0.1-3.8-0.2c-4-0.6-7.5-2.1-10.5-4.5c-3.8-3.2-6.4-7.6-7.6-13.3
			c-1.2-5.7-0.5-10.1,2-13.3c2.5-3.2,6.6-4.8,12.2-4.8c1.3,0,2.6,0.1,3.8,0.2c4,0.6,7.4,2.1,10.4,4.5c3.9,3.2,6.4,7.6,7.6,13.3
			c1.2,5.7,0.6,10.1-2,13.3C5.1-12.6,1-11-4.6-11 M-84-0.2h-11.7l-6.1-28.7c-0.7-3.1-1.7-5.3-3.2-6.7c-1.4-1.3-3.5-2-6.2-2
			c-2.8,0-4.6,0.6-5.5,2c-1,1.4-1,3.6-0.4,6.7l6,28.7h-11.5l-5.8-27.2c-0.8-3.8-1.1-6.9-0.8-9.2c0.3-2.3,1.1-4.2,2.6-5.8
			c1.4-1.6,3.3-2.9,5.5-3.7c2.2-0.8,4.9-1.3,7.9-1.3c3,0,5.8,0.5,8.4,1.3c2.6,0.8,4.9,2.1,7.1,3.7c2,1.6,3.7,3.5,4.9,5.8
			c1.3,2.2,2.3,5.3,3.1,9.2l4.3,20.5L-84-0.2z M99.5-13.7c-0.3-1.4-1-2.6-2.2-3.4c-1.1-0.7-2.7-1-4.7-1h-9.4L85-9.4h9.9
			c1.8,0,3.1-0.4,3.8-1.1C99.6-11.3,99.8-12.3,99.5-13.7 M96.8-31.8c-0.4-1.8-1.3-3.2-2.5-4c-0.7-0.4-1.7-0.7-2.8-0.9
			c-1-0.2-2.1-0.2-3.4-0.2h-8.9l2.2,10.1h10.1c2.1,0,3.6-0.5,4.5-1.3C96.9-28.9,97.1-30.1,96.8-31.8 M98-0.2H75.7L66-46.1h18
			c3,0,5.4,0.1,7.4,0.2c0.8,0.1,1.4,0.2,2.1,0.3c2.2,0.3,4,0.9,5.6,1.7c2.3,1.1,4.3,2.7,6,4.8c1.6,2.1,2.6,4.4,3.2,7
			c0.6,2.6,0.3,4.8-0.7,6.6c-1,1.8-2.8,3-5.4,3.7c2.5,0.9,4.5,2.1,6,3.7c1.4,1.6,2.5,3.6,3,6.1c0.9,4,0.2,6.9-1.9,8.9
			C107.1-1.1,103.3-0.2,98-0.2"/>
	</g>
</g>
</svg>
